#!OML:ASF F:\VICON\USERDATA\INSTALL\rory3\rory3.ASF
:FULLY-SPECIFIED
:DEGREES
26
root 0.7201743716517361 17.85074792082284 2.131743547712883 -1.5111768668343841 0.9051252053242762 3.803257909229488
lfemur 8.70787291808809 -2.2112905907881655 -28.545448244862275
ltibia 14.478334391997038
lfoot -16.385830737585792 1.1279545768921426
ltoes -2.305298712107699
rfemur -27.12411077036328 6.01455518473297 15.264499297815767
rtibia 19.962259327945226
rfoot -7.226932805018823 -15.995946864612904
rtoes -2.3113854016178244
lowerback 9.546140662939633 -0.7178239013375666 -5.111842175708438
upperback 0.35267723618919494 -1.5225040710948976 0.6105187573277071
thorax -4.822473782102674 -0.6272418007775161 3.4085478258904267
lowerneck -16.999560706658578 -2.854705330732936 -2.209561026381761
upperneck 21.04952464631912 -3.5714836891838124 0.5978008795365115
head 9.508540558745107 -1.7621494162001996 0.13177898891411893
lclavicle -3.168028499533297e-15 -6.633429811485233e-16
lhumerus -22.995730216025866 -4.997564567250709 82.29267234017696
lradius 29.46188348180667
lwrist 6.83690956444058
lhand -27.136197941707245 27.304672199208863
lfingers 7.1250199999999975
lthumb -0.5516338404161545 57.27961972132322
rclavicle -3.168028499533297e-15 -6.633429811485233e-16
rhumerus -30.53765024829811 -20.69444549212519 -78.17993581552875
rradius 22.4303019495416
rwrist 6.666280200152127
rhand -17.20973556803743 22.598001291638045
rfingers 7.1250199999999975
rthumb 9.032863513583138 -7.073970878091706
27
root 0.5757602011034928 17.757731850216548 5.618032116139304 -1.225865827812781 1.8906747136733149 3.707287000838934
lfemur 11.82848321541426 -2.985279083299802 -27.819397608116176
ltibia 15.48526408699647
lfoot -15.639272854343197 0.3816773053513336
ltoes -5.6547032418324115
rfemur -26.68733416347704 6.581567665229246 15.261433656785766
rtibia 17.609674366342063
rfoot -7.490418675446329 -14.806624967236665
rtoes -2.7052208775317568
lowerback 9.436076823596201 -0.993240190377752 -5.092904760630859
upperback 0.31453296747865156 -1.8598780749735684 0.8468468201764552
thorax -4.763639944148112 -0.7976737110663344 3.729144838486647
lowerneck -17.126584137061542 -2.8401827136897366 -2.2472902417114122
upperneck 20.958026132435624 -3.5467367185491288 0.6347897385027136
head 9.492750920045752 -1.7489857854951865 0.1517209778988212
lclavicle -2.862832185777578e-15 -4.597832709258941e-16
lhumerus -21.896910513437405 -5.188172207624067 82.49206976629075
lradius 30.427426775759912
lwrist 7.244789478106599
lhand -28.00211427480344 26.393621923901094
lfingers 7.1250199999999975
lthumb -1.387897098227888 56.365493709945184
rclavicle -2.862832185777578e-15 -4.597832709258941e-16
rhumerus -31.146451899699134 -22.351404321507456 -77.24466492031554
rradius 21.406107323015174
rwrist 8.172277763462121
rhand -17.56598874015902 22.210307789415538
rfingers 7.1250199999999975
rthumb 8.688976610129938 -7.506870263710478
28
root 0.41741751244224456 17.69141903608012 6.156751404217842 -1.4520445958892148 2.2417596814965526 2.8593978215823737
lfemur 12.41163214311839 -3.7779289197662003 -26.90204926262076
ltibia 19.457539367415336
lfoot -14.37211790275244 -1.5279933743885263
ltoes -11.10253939504977
rfemur -27.004341064428026 6.019262848185283 16.575048774338008
rtibia 20.367918169259983
rfoot -7.666177682005261 -11.238241195693105
rtoes -2.7171094499232393
lowerback 9.440204826718626 -1.1721194815980005 -4.867733400822173
upperback 0.35068996821258447 -2.0579726485659218 1.1813833710025539
thorax -4.774397767844043 -0.894331326172363 3.7941783762767103
lowerneck -17.2396655204672 -2.8103396805314325 -2.2303816819944813
upperneck 20.9765748926336 -3.502491754219668 0.46124741315234186
head 9.514900459322057 -1.732857103621134 0.10063827709093257
lclavicle -3.5224739376859936e-15 -8.997621473521026e-16
lhumerus -21.961080554072524 -4.853080463033452 82.78554883116404
lradius 30.95248651174614
lwrist 7.368244897430462
lhand -29.240916682579435 24.39779904280666
lfingers 7.1250199999999975
lthumb -2.5842960805990325 54.36006382455028
rclavicle -3.5224739376859936e-15 -8.997621473521026e-16
rhumerus -32.022755956257896 -24.158606821732064 -76.2031934250508
rradius 20.397947935921138
rwrist 9.653277776167196
rhand -17.7355984777502 21.892065090762987
rfingers 7.1250199999999975
rthumb 8.525285543242582 -7.769762501151692
29
root 0.2985366602314219 17.718326517017946 5.864133558126264 -1.8271603140362935 2.2516519073806913 1.7169015825058542
lfemur 12.679317880832247 -4.189378270054295 -24.599914099782374
ltibia 27.068406001427938
lfoot -8.578033508152005 -4.865646544507124
ltoes -15.68529811299241
rfemur -26.46688449642909 5.2091556306496285 19.3718124542865
rtibia 27.334631465927878
rfoot -5.659741509608574 -6.6679711670360815
rtoes 1.132862260688706
lowerback 9.548301851419392 -1.177360057449237 -3.7981274872013326
upperback 0.3346872065298523 -1.9409933234322296 1.7152867376693175
thorax -4.8365188044838 -0.8475021610130676 3.8769023487424463
lowerneck -17.280106835485938 -2.715819709215936 -2.013749674495524
upperneck 21.16632240841428 -3.3468511119120103 0.1410276610054948
head 9.593071366311355 -1.6825799512604855 0.009865584805973604
lclavicle -2.8144761329376753e-15 -4.275259047701654e-16
lhumerus -22.74866798519789 -3.9119210367775095 83.29738823427061
lradius 31.333863999188345
lwrist 7.359401300436675
lhand -29.34577679439719 24.029102171392285
lfingers 7.1250199999999975
lthumb -2.685569178948143 53.981746512282506
rclavicle -2.8144761329376753e-15 -4.275259047701654e-16
rhumerus -32.789307115567226 -25.8799139718672 -74.81792272849077
rradius 19.460381585541327
rwrist 11.671285138156001
rhand -17.607714070492577 21.96496894138656
rfingers 7.1250199999999975
rthumb 8.648681859663402 -7.7607250562642225
